# xmcd
#
# Track frame offsets:
#	150
#	14205
#	31506
#	47869
#	59689
#	75385
#	83487
#	99461
#	110457
#	124991
#	138568
#	150540
#
# Disc length: 2182 seconds
#
# Revision: 1
# Processed by: cddbd v1.5.2PL0 Copyright (c) Steve Scherf et al.
# Submitted via: audiograbber 1.83.01
#
DISCID=9608840c
DTITLE=Wild-Life - Hold the Child 
DYEAR=2000
DGENRE=
TTITLE0=Til we meet again - R.I.P. Michael, March 99. 
TTITLE1=Where the wild life calls. 
TTITLE2=Out of Darkness.
TTITLE3=Long be the man. 
TTITLE4=Blessings for the fields.
TTITLE5=When the chips are down. 
TTITLE6=Instrumental by Matthew Newland.
TTITLE7=No Buts about it.
TTITLE8=The Lonely Boy.
TTITLE9=Shalom.
TTITLE10=Tears of Joy.
TTITLE11=Love is.
EXTD=
EXTT0=
EXTT1=
EXTT2=
EXTT3=
EXTT4=
EXTT5=
EXTT6=
EXTT7=
EXTT8=
EXTT9=
EXTT10=
EXTT11=
PLAYORDER=
